<mxfile host="app.diagrams.net" agent="Mozilla/5.0 (Windows NT 10.0; Win64; x64) AppleWebKit/537.36 (KHTML, like Gecko) Chrome/130.0.0.0 Safari/537.36" version="24.8.3">
  <diagram name="Halaman-1" id="LnNPjyjB08Nk9mJGT9B2">
    <mxGraphModel grid="1" page="1" gridSize="10" guides="1" tooltips="1" connect="1" arrows="1" fold="1" pageScale="1" pageWidth="827" pageHeight="1169" math="0" shadow="0">
      <root>
        <mxCell id="0" />
        <mxCell id="1" parent="0" />
        <mxCell id="KwVdap0ImDBGZZIHcFSp-2" value="" style="endArrow=classic;html=1;rounded=0;exitX=0.5;exitY=1;exitDx=0;exitDy=0;" edge="1" parent="1">
          <mxGeometry width="50" height="50" relative="1" as="geometry">
            <mxPoint x="352.5" y="100" as="sourcePoint" />
            <mxPoint x="352.5" y="160" as="targetPoint" />
          </mxGeometry>
        </mxCell>
        <mxCell id="KwVdap0ImDBGZZIHcFSp-3" value="" style="endArrow=classic;html=1;rounded=0;exitX=0.5;exitY=1;exitDx=0;exitDy=0;" edge="1" parent="1">
          <mxGeometry width="50" height="50" relative="1" as="geometry">
            <mxPoint x="352.5" y="270" as="sourcePoint" />
            <mxPoint x="352.5" y="330" as="targetPoint" />
          </mxGeometry>
        </mxCell>
        <mxCell id="KwVdap0ImDBGZZIHcFSp-4" value="&lt;font face=&quot;Comic Sans MS&quot;&gt;&lt;span style=&quot;font-size: 14px;&quot;&gt;Tampilkan di LCD&amp;nbsp;&lt;/span&gt;&lt;/font&gt;&lt;span style=&quot;font-size: 14px; font-family: &amp;quot;Comic Sans MS&amp;quot;; background-color: initial;&quot;&gt;&#39;Mengukur..&#39;&lt;/span&gt;&lt;div&gt;&lt;span style=&quot;font-size: 14px; font-family: &amp;quot;Comic Sans MS&amp;quot;; background-color: initial;&quot;&gt;Matikan LED&lt;/span&gt;&lt;/div&gt;" style="rounded=0;whiteSpace=wrap;html=1;" vertex="1" parent="1">
          <mxGeometry x="248" y="330" width="210" height="80" as="geometry" />
        </mxCell>
        <mxCell id="KwVdap0ImDBGZZIHcFSp-5" value="&lt;div&gt;&lt;font style=&quot;font-size: 14px;&quot; face=&quot;Comic Sans MS&quot;&gt;&lt;br&gt;&lt;/font&gt;&lt;/div&gt;&lt;font style=&quot;&quot; face=&quot;Comic Sans MS&quot;&gt;&lt;div style=&quot;font-size: 14px;&quot;&gt;&lt;font style=&quot;&quot; face=&quot;Comic Sans MS&quot;&gt;&lt;br&gt;&lt;/font&gt;&lt;/div&gt;&lt;font style=&quot;font-size: 14px;&quot;&gt;Inisialisasi&lt;/font&gt;&lt;/font&gt;&lt;div style=&quot;text-align: left;&quot;&gt;&lt;span style=&quot;background-color: initial; font-family: &amp;quot;Comic Sans MS&amp;quot;; font-size: 14px;&quot;&gt;- Serial Monitor&lt;/span&gt;&lt;/div&gt;&lt;div style=&quot;text-align: left;&quot;&gt;&lt;span style=&quot;background-color: initial; font-family: &amp;quot;Comic Sans MS&amp;quot;; font-size: 14px;&quot;&gt;- Sensor DHT&lt;/span&gt;&lt;/div&gt;&lt;div&gt;&lt;div style=&quot;text-align: left;&quot;&gt;&lt;span style=&quot;background-color: initial; font-family: &amp;quot;Comic Sans MS&amp;quot;; font-size: 14px;&quot;&gt;- LCD I2C&lt;/span&gt;&lt;/div&gt;&lt;div style=&quot;text-align: left;&quot;&gt;&lt;span style=&quot;background-color: initial; font-family: &amp;quot;Comic Sans MS&amp;quot;; font-size: 14px;&quot;&gt;- Pin LED&lt;/span&gt;&lt;/div&gt;&lt;div&gt;&lt;div&gt;&lt;div style=&quot;text-align: left;&quot;&gt;&lt;font size=&quot;3&quot;&gt;&lt;br&gt;&lt;/font&gt;&lt;/div&gt;&lt;/div&gt;&lt;div&gt;&lt;div&gt;&lt;br&gt;&lt;/div&gt;&lt;/div&gt;&lt;/div&gt;&lt;/div&gt;" style="rounded=0;whiteSpace=wrap;html=1;" vertex="1" parent="1">
          <mxGeometry x="256" y="160" width="194" height="110" as="geometry" />
        </mxCell>
        <mxCell id="KwVdap0ImDBGZZIHcFSp-6" value="&lt;font face=&quot;Comic Sans MS&quot;&gt;&lt;span style=&quot;font-size: 14px;&quot;&gt;Baca Suhu&lt;/span&gt;&lt;/font&gt;" style="rounded=0;whiteSpace=wrap;html=1;" vertex="1" parent="1">
          <mxGeometry x="293.5" y="590" width="120" height="60" as="geometry" />
        </mxCell>
        <mxCell id="KwVdap0ImDBGZZIHcFSp-7" value="" style="endArrow=classic;html=1;rounded=0;exitX=0.5;exitY=1;exitDx=0;exitDy=0;" edge="1" parent="1">
          <mxGeometry width="50" height="50" relative="1" as="geometry">
            <mxPoint x="353" y="650" as="sourcePoint" />
            <mxPoint x="353" y="710" as="targetPoint" />
          </mxGeometry>
        </mxCell>
        <mxCell id="KwVdap0ImDBGZZIHcFSp-8" value="&lt;font style=&quot;font-size: 14px;&quot; face=&quot;Comic Sans MS&quot;&gt;Pembacaan Berhasil?&lt;/font&gt;" style="rhombus;whiteSpace=wrap;html=1;" vertex="1" parent="1">
          <mxGeometry x="293.5" y="710" width="120" height="120" as="geometry" />
        </mxCell>
        <mxCell id="KwVdap0ImDBGZZIHcFSp-9" value="" style="endArrow=classic;html=1;rounded=0;" edge="1" parent="1">
          <mxGeometry width="50" height="50" relative="1" as="geometry">
            <mxPoint x="213.5" y="770" as="sourcePoint" />
            <mxPoint x="213.5" y="860" as="targetPoint" />
          </mxGeometry>
        </mxCell>
        <mxCell id="KwVdap0ImDBGZZIHcFSp-10" value="" style="endArrow=none;html=1;rounded=0;entryX=0;entryY=0.5;entryDx=0;entryDy=0;" edge="1" parent="1" target="KwVdap0ImDBGZZIHcFSp-8">
          <mxGeometry width="50" height="50" relative="1" as="geometry">
            <mxPoint x="213.5" y="770" as="sourcePoint" />
            <mxPoint x="263.5" y="720" as="targetPoint" />
          </mxGeometry>
        </mxCell>
        <mxCell id="KwVdap0ImDBGZZIHcFSp-11" value="" style="endArrow=none;html=1;rounded=0;entryX=0;entryY=0.5;entryDx=0;entryDy=0;" edge="1" parent="1">
          <mxGeometry width="50" height="50" relative="1" as="geometry">
            <mxPoint x="413.5" y="769.5" as="sourcePoint" />
            <mxPoint x="493.5" y="769.5" as="targetPoint" />
          </mxGeometry>
        </mxCell>
        <mxCell id="KwVdap0ImDBGZZIHcFSp-12" value="" style="endArrow=classic;html=1;rounded=0;" edge="1" parent="1">
          <mxGeometry width="50" height="50" relative="1" as="geometry">
            <mxPoint x="493.5" y="770" as="sourcePoint" />
            <mxPoint x="493.5" y="860" as="targetPoint" />
          </mxGeometry>
        </mxCell>
        <mxCell id="KwVdap0ImDBGZZIHcFSp-13" value="" style="endArrow=classic;html=1;rounded=0;exitX=0.5;exitY=1;exitDx=0;exitDy=0;" edge="1" parent="1">
          <mxGeometry width="50" height="50" relative="1" as="geometry">
            <mxPoint x="353.5" y="530" as="sourcePoint" />
            <mxPoint x="353.5" y="590" as="targetPoint" />
          </mxGeometry>
        </mxCell>
        <mxCell id="KwVdap0ImDBGZZIHcFSp-14" value="&lt;font face=&quot;Comic Sans MS&quot;&gt;&lt;span style=&quot;font-size: 14px;&quot;&gt;Tampilkan Error di LCD&lt;/span&gt;&lt;/font&gt;" style="rounded=0;whiteSpace=wrap;html=1;" vertex="1" parent="1">
          <mxGeometry x="160" y="860" width="120" height="60" as="geometry" />
        </mxCell>
        <mxCell id="KwVdap0ImDBGZZIHcFSp-15" value="&lt;font face=&quot;Comic Sans MS&quot;&gt;&lt;span style=&quot;font-size: 14px;&quot;&gt;Tampilkan Kelembaban dan Suhu di Serial Monitor&lt;/span&gt;&lt;/font&gt;" style="rounded=0;whiteSpace=wrap;html=1;" vertex="1" parent="1">
          <mxGeometry x="400" y="860" width="180" height="70" as="geometry" />
        </mxCell>
        <mxCell id="KwVdap0ImDBGZZIHcFSp-16" value="" style="endArrow=classic;html=1;rounded=0;exitX=0.5;exitY=1;exitDx=0;exitDy=0;" edge="1" parent="1">
          <mxGeometry width="50" height="50" relative="1" as="geometry">
            <mxPoint x="500" y="930" as="sourcePoint" />
            <mxPoint x="500" y="990" as="targetPoint" />
          </mxGeometry>
        </mxCell>
        <mxCell id="KwVdap0ImDBGZZIHcFSp-17" value="&lt;font face=&quot;Comic Sans MS&quot;&gt;&lt;span style=&quot;font-size: 14px;&quot;&gt;Bersihkan&lt;/span&gt;&lt;/font&gt;&lt;div&gt;&lt;font face=&quot;Comic Sans MS&quot;&gt;&lt;span style=&quot;font-size: 14px;&quot;&gt;Layar LCD&lt;/span&gt;&lt;/font&gt;&lt;/div&gt;" style="rounded=0;whiteSpace=wrap;html=1;" vertex="1" parent="1">
          <mxGeometry x="440" y="990" width="120" height="60" as="geometry" />
        </mxCell>
        <mxCell id="KwVdap0ImDBGZZIHcFSp-18" value="" style="endArrow=classic;html=1;rounded=0;exitX=0.5;exitY=1;exitDx=0;exitDy=0;" edge="1" parent="1">
          <mxGeometry width="50" height="50" relative="1" as="geometry">
            <mxPoint x="499.5" y="1050" as="sourcePoint" />
            <mxPoint x="499.5" y="1110" as="targetPoint" />
          </mxGeometry>
        </mxCell>
        <mxCell id="KwVdap0ImDBGZZIHcFSp-19" value="&lt;font face=&quot;Comic Sans MS&quot;&gt;&lt;span style=&quot;font-size: 14px;&quot;&gt;Tampilkan Kelembapan dan Suhu di LCD&lt;/span&gt;&lt;/font&gt;" style="rounded=0;whiteSpace=wrap;html=1;" vertex="1" parent="1">
          <mxGeometry x="415" y="1110" width="170" height="70" as="geometry" />
        </mxCell>
        <mxCell id="KwVdap0ImDBGZZIHcFSp-20" value="" style="endArrow=classic;html=1;rounded=0;entryX=0.5;entryY=0;entryDx=0;entryDy=0;" edge="1" parent="1">
          <mxGeometry width="50" height="50" relative="1" as="geometry">
            <mxPoint x="500" y="1180" as="sourcePoint" />
            <mxPoint x="501" y="1240" as="targetPoint" />
          </mxGeometry>
        </mxCell>
        <mxCell id="KwVdap0ImDBGZZIHcFSp-21" value="&lt;font style=&quot;font-size: 14px;&quot; face=&quot;Comic Sans MS&quot;&gt;Tidak&lt;/font&gt;" style="text;html=1;align=center;verticalAlign=middle;resizable=0;points=[];autosize=1;strokeColor=none;fillColor=none;" vertex="1" parent="1">
          <mxGeometry x="160" y="800" width="60" height="30" as="geometry" />
        </mxCell>
        <mxCell id="KwVdap0ImDBGZZIHcFSp-22" value="" style="endArrow=classic;html=1;rounded=0;exitX=0.5;exitY=1;exitDx=0;exitDy=0;" edge="1" parent="1">
          <mxGeometry width="50" height="50" relative="1" as="geometry">
            <mxPoint x="352.5" y="410" as="sourcePoint" />
            <mxPoint x="352.5" y="470" as="targetPoint" />
          </mxGeometry>
        </mxCell>
        <mxCell id="KwVdap0ImDBGZZIHcFSp-23" value="&lt;font face=&quot;Comic Sans MS&quot;&gt;&lt;span style=&quot;font-size: 14px;&quot;&gt;Baca&amp;nbsp;&lt;/span&gt;&lt;/font&gt;&lt;div&gt;&lt;font face=&quot;Comic Sans MS&quot;&gt;&lt;span style=&quot;font-size: 14px;&quot;&gt;Kelembaban&lt;/span&gt;&lt;/font&gt;&lt;/div&gt;" style="rounded=0;whiteSpace=wrap;html=1;" vertex="1" parent="1">
          <mxGeometry x="293" y="470" width="120" height="60" as="geometry" />
        </mxCell>
        <mxCell id="KwVdap0ImDBGZZIHcFSp-24" value="&lt;font face=&quot;Comic Sans MS&quot;&gt;&lt;span style=&quot;font-size: 14px;&quot;&gt;Suhu &amp;gt;= 25 C&lt;/span&gt;&lt;/font&gt;" style="rhombus;whiteSpace=wrap;html=1;" vertex="1" parent="1">
          <mxGeometry x="440" y="1240" width="120" height="120" as="geometry" />
        </mxCell>
        <mxCell id="KwVdap0ImDBGZZIHcFSp-25" value="" style="endArrow=classic;html=1;rounded=0;" edge="1" parent="1">
          <mxGeometry width="50" height="50" relative="1" as="geometry">
            <mxPoint x="400" y="1300.5" as="sourcePoint" />
            <mxPoint x="400" y="1390.5" as="targetPoint" />
          </mxGeometry>
        </mxCell>
        <mxCell id="KwVdap0ImDBGZZIHcFSp-26" value="" style="endArrow=classic;html=1;rounded=0;" edge="1" parent="1">
          <mxGeometry width="50" height="50" relative="1" as="geometry">
            <mxPoint x="610" y="1300.5" as="sourcePoint" />
            <mxPoint x="610" y="1390.5" as="targetPoint" />
          </mxGeometry>
        </mxCell>
        <mxCell id="KwVdap0ImDBGZZIHcFSp-27" value="&lt;span style=&quot;font-family: &amp;quot;Comic Sans MS&amp;quot;; font-size: 14px;&quot;&gt;LED Mati&lt;/span&gt;" style="rounded=0;whiteSpace=wrap;html=1;" vertex="1" parent="1">
          <mxGeometry x="535" y="1390.5" width="120" height="60" as="geometry" />
        </mxCell>
        <mxCell id="KwVdap0ImDBGZZIHcFSp-28" value="&lt;font face=&quot;Comic Sans MS&quot;&gt;&lt;span style=&quot;font-size: 14px;&quot;&gt;LED Menyala&lt;/span&gt;&lt;/font&gt;" style="rounded=0;whiteSpace=wrap;html=1;" vertex="1" parent="1">
          <mxGeometry x="345" y="1390.5" width="120" height="60" as="geometry" />
        </mxCell>
        <mxCell id="KwVdap0ImDBGZZIHcFSp-29" value="&lt;font face=&quot;Comic Sans MS&quot;&gt;&lt;span style=&quot;font-size: 14px;&quot;&gt;Tunggu 2 detik&lt;/span&gt;&lt;/font&gt;" style="rounded=0;whiteSpace=wrap;html=1;" vertex="1" parent="1">
          <mxGeometry x="445" y="1510.5" width="120" height="60" as="geometry" />
        </mxCell>
        <mxCell id="KwVdap0ImDBGZZIHcFSp-30" value="" style="endArrow=none;html=1;rounded=0;" edge="1" parent="1">
          <mxGeometry width="50" height="50" relative="1" as="geometry">
            <mxPoint x="400" y="1540.5" as="sourcePoint" />
            <mxPoint x="400" y="1450.5" as="targetPoint" />
          </mxGeometry>
        </mxCell>
        <mxCell id="KwVdap0ImDBGZZIHcFSp-31" value="" style="endArrow=classic;html=1;rounded=0;entryX=0;entryY=1;entryDx=0;entryDy=0;" edge="1" parent="1">
          <mxGeometry width="50" height="50" relative="1" as="geometry">
            <mxPoint x="400" y="1540" as="sourcePoint" />
            <mxPoint x="445" y="1540" as="targetPoint" />
          </mxGeometry>
        </mxCell>
        <mxCell id="KwVdap0ImDBGZZIHcFSp-32" value="" style="endArrow=none;html=1;rounded=0;" edge="1" parent="1">
          <mxGeometry width="50" height="50" relative="1" as="geometry">
            <mxPoint x="610" y="1540.5" as="sourcePoint" />
            <mxPoint x="610" y="1450.5" as="targetPoint" />
          </mxGeometry>
        </mxCell>
        <mxCell id="KwVdap0ImDBGZZIHcFSp-33" value="" style="endArrow=classic;html=1;rounded=0;" edge="1" parent="1">
          <mxGeometry width="50" height="50" relative="1" as="geometry">
            <mxPoint x="610" y="1541" as="sourcePoint" />
            <mxPoint x="565" y="1540.5" as="targetPoint" />
          </mxGeometry>
        </mxCell>
        <mxCell id="KwVdap0ImDBGZZIHcFSp-34" value="" style="endArrow=none;html=1;rounded=0;" edge="1" parent="1">
          <mxGeometry width="50" height="50" relative="1" as="geometry">
            <mxPoint x="400" y="1300" as="sourcePoint" />
            <mxPoint x="439" y="1300" as="targetPoint" />
          </mxGeometry>
        </mxCell>
        <mxCell id="KwVdap0ImDBGZZIHcFSp-35" value="" style="endArrow=none;html=1;rounded=0;" edge="1" parent="1">
          <mxGeometry width="50" height="50" relative="1" as="geometry">
            <mxPoint x="560" y="1300" as="sourcePoint" />
            <mxPoint x="610" y="1300" as="targetPoint" />
          </mxGeometry>
        </mxCell>
        <mxCell id="KwVdap0ImDBGZZIHcFSp-36" value="" style="endArrow=none;html=1;rounded=0;" edge="1" parent="1">
          <mxGeometry width="50" height="50" relative="1" as="geometry">
            <mxPoint x="565" y="1560.5" as="sourcePoint" />
            <mxPoint x="720" y="1561" as="targetPoint" />
          </mxGeometry>
        </mxCell>
        <mxCell id="KwVdap0ImDBGZZIHcFSp-37" value="" style="endArrow=none;html=1;rounded=0;" edge="1" parent="1">
          <mxGeometry width="50" height="50" relative="1" as="geometry">
            <mxPoint x="720" y="1560.5" as="sourcePoint" />
            <mxPoint x="720" y="500" as="targetPoint" />
          </mxGeometry>
        </mxCell>
        <mxCell id="KwVdap0ImDBGZZIHcFSp-38" value="" style="endArrow=classic;html=1;rounded=0;entryX=1;entryY=0.5;entryDx=0;entryDy=0;" edge="1" parent="1" target="KwVdap0ImDBGZZIHcFSp-23">
          <mxGeometry width="50" height="50" relative="1" as="geometry">
            <mxPoint x="720" y="500" as="sourcePoint" />
            <mxPoint x="430" y="490" as="targetPoint" />
          </mxGeometry>
        </mxCell>
        <mxCell id="KwVdap0ImDBGZZIHcFSp-39" value="" style="endArrow=none;html=1;rounded=0;" edge="1" parent="1">
          <mxGeometry width="50" height="50" relative="1" as="geometry">
            <mxPoint x="210" y="1560" as="sourcePoint" />
            <mxPoint x="210" y="920" as="targetPoint" />
          </mxGeometry>
        </mxCell>
        <mxCell id="KwVdap0ImDBGZZIHcFSp-40" value="" style="endArrow=classic;html=1;rounded=0;" edge="1" parent="1">
          <mxGeometry width="50" height="50" relative="1" as="geometry">
            <mxPoint x="210" y="1560" as="sourcePoint" />
            <mxPoint x="445" y="1560" as="targetPoint" />
          </mxGeometry>
        </mxCell>
        <mxCell id="KwVdap0ImDBGZZIHcFSp-41" value="&#xa;&lt;span style=&quot;color: rgb(0, 0, 0); font-family: &amp;quot;Comic Sans MS&amp;quot;; font-size: 14px; font-style: normal; font-variant-ligatures: normal; font-variant-caps: normal; font-weight: 400; letter-spacing: normal; orphans: 2; text-align: center; text-indent: 0px; text-transform: none; widows: 2; word-spacing: 0px; -webkit-text-stroke-width: 0px; white-space: normal; background-color: rgb(251, 251, 251); text-decoration-thickness: initial; text-decoration-style: initial; text-decoration-color: initial; display: inline !important; float: none;&quot;&gt;Mulai&lt;/span&gt;&#xa;&#xa;" style="ellipse;whiteSpace=wrap;html=1;" vertex="1" parent="1">
          <mxGeometry x="293" y="30" width="120" height="80" as="geometry" />
        </mxCell>
      </root>
    </mxGraphModel>
  </diagram>
</mxfile>
